<svg width="320" height="320" viewBox="0 0 320 320" fill="none" xmlns="http://www.w3.org/2000/svg" role="img" aria-labelledby="title desc">
  <title id="title">Любопытный кот-аналитик на рабочем столе</title>
  <desc id="desc">Лоснящийся чёрный кот сидит рядом с ноутбуком и чашкой, внимательно следит за данными. Хвост покачивается, уши шевелятся, глаза мигают.</desc>
  <style>
    :root {
      color-scheme: light dark;
    }
    .shadow { fill: rgba(20, 18, 32, 0.22); }
    .desk { fill: #e1e7ff; }
    .desk-edge { fill: #cbd6ff; }
    .laptop-base { fill: #1f2340; }
    .laptop-screen { fill: url(#screenGradient); }
    .screen-glare { fill: rgba(255, 255, 255, 0.2); }
    .fur-dark { fill: #171422; }
    .fur-medium { fill: #1f1d2e; }
    .fur-light { fill: #2c2941; }
    .fur-gloss { fill: url(#furGloss); opacity: 0.55; mix-blend-mode: screen; }
    .inner-ear { fill: #f3a8b9; }
    .eye-sclera { fill: #f9d66b; }
    .eye-pupil { fill: #0f101a; }
    .eye-shine { fill: #ffffff; opacity: 0.85; }
    .nose { fill: #f7a9bb; }
    .tongue { fill: #f68094; }
    .whisker { stroke: #d9d8ee; stroke-width: 2.6; stroke-linecap: round; }
    .line { fill: none; stroke: #13111d; stroke-width: 2.2; stroke-linecap: round; stroke-linejoin: round; }
    .cup { fill: #f4965a; }
    .cup-shadow { fill: #e07d3f; }
    .steam path { fill: #ffffff; opacity: 0.56; }
    .tail { transform-box: fill-box; transform-origin: 10% 80%; animation: tail-sway 3.6s ease-in-out infinite; }
    .head { transform-box: fill-box; transform-origin: 50% 78%; animation: head-bob 4.8s ease-in-out infinite; }
    .blink { transform-box: fill-box; transform-origin: 50% 0%; animation: blink 7s ease-in-out infinite; }
    .ears { transform-box: fill-box; transform-origin: 50% 10%; animation: ear-twitch 5.4s ease-in-out infinite; }
    .paws { transform-box: fill-box; transform-origin: 50% 50%; animation: paw-shift 4.2s ease-in-out infinite; }
    .steam { transform-box: fill-box; transform-origin: 50% 100%; animation: steam-rise 4.4s ease-in-out infinite; }
    .cursor { transform-box: fill-box; transform-origin: 90% 50%; animation: cursor-pulse 2.4s ease-in-out infinite; }
    @keyframes tail-sway {
      0%, 100% { transform: rotate(10deg); }
      50% { transform: rotate(-6deg); }
    }
    @keyframes head-bob {
      0%, 100% { transform: translateY(0); }
      50% { transform: translateY(-5px); }
    }
    @keyframes blink {
      0%, 78%, 80%, 100% { transform: scaleY(0); }
      79% { transform: scaleY(1); }
    }
    @keyframes ear-twitch {
      0%, 100% { transform: rotate(0deg); }
      40% { transform: rotate(3deg); }
      60% { transform: rotate(-3deg); }
    }
    @keyframes paw-shift {
      0%, 100% { transform: translateY(0); }
      50% { transform: translateY(3px); }
    }
    @keyframes steam-rise {
      0% { opacity: 0.2; transform: translateY(12px) scale(0.9); }
      50% { opacity: 0.6; }
      100% { opacity: 0; transform: translateY(-18px) scale(1.1); }
    }
    @keyframes cursor-pulse {
      0%, 100% { opacity: 0.9; transform: translateY(0); }
      50% { opacity: 0.3; transform: translateY(4px); }
    }
    @media (prefers-reduced-motion: reduce) {
      .tail, .head, .blink, .ears, .paws, .steam, .cursor {
        animation-duration: 0.01ms !important;
        animation-iteration-count: 1 !important;
      }
    }
  </style>
  <defs>
    <linearGradient id="screenGradient" x1="0" y1="0" x2="1" y2="1">
      <stop offset="0%" stop-color="#2f4bff" />
      <stop offset="100%" stop-color="#101833" />
    </linearGradient>
    <linearGradient id="furGloss" x1="80" y1="80" x2="220" y2="220" gradientUnits="userSpaceOnUse">
      <stop offset="0" stop-color="#ffffff" stop-opacity="0.35" />
      <stop offset="0.5" stop-color="#ffffff" stop-opacity="0.12" />
      <stop offset="1" stop-color="#ffffff" stop-opacity="0" />
    </linearGradient>
  </defs>
  <ellipse class="shadow" cx="164" cy="272" rx="120" ry="30" />
  <g class="desk" transform="translate(48 248)">
    <rect width="224" height="20" rx="10" />
    <rect class="desk-edge" y="18" width="224" height="10" rx="5" />
  </g>
  <g class="laptop" transform="translate(60 160)">
    <rect class="laptop-base" x="12" y="70" width="120" height="14" rx="6" />
    <rect class="laptop-base" width="144" height="84" rx="10" />
    <rect class="laptop-screen" x="10" y="10" width="124" height="64" rx="6" />
    <path class="screen-glare" d="M18 16h40c10 0 18 8 18 18 0 18-24 34-44 34H18z" />
    <g class="cursor" transform="translate(108 32)">
      <path fill="#fdfdfd" d="M0 0l12 22-7-2-4 8z" />
    </g>
  </g>
  <g class="cup" transform="translate(226 200)">
    <ellipse class="cup-shadow" cx="24" cy="44" rx="24" ry="10" />
    <path d="M0 14c0-8 6-14 18-14h32c12 0 18 6 18 14v32c0 16-12 28-28 28H28C12 74 0 62 0 46z" />
    <path fill="#fcd7b8" d="M8 18c0-6 6-10 18-10h26c12 0 18 4 18 10s-6 10-18 10H26C14 28 8 24 8 18z" />
  </g>
  <g class="steam" transform="translate(248 176)">
    <path d="M0 24c-6-10 0-18 6-22s8-10 6-16c8 4 12 16 8 24-4 8-12 10-8 16 4 6-6 10-12 4z" />
    <path d="M18 22c-6-10 0-18 6-22s8-10 6-16c8 4 12 16 8 24-4 8-12 10-8 16 4 6-6 10-12 4z" opacity="0.6" />
  </g>
  <g class="cat">
    <path class="tail fur-medium" d="M252 178c22 12 32 34 26 52-6 18-26 30-48 20-12-6-12-20-4-28s18-12 16-22c-2-10 4-16 10-22z" />
    <g class="body">
      <path class="fur-medium" d="M104 140c8-34 34-60 64-64 32-4 68 16 84 44 20 36 10 84-10 110-20 28-52 42-78 40-30-4-60-26-76-60-12-24-8-48 16-70z" />
      <path class="fur-light" d="M132 226c12 22 42 38 70 38s52-14 64-34c-6 30-38 54-74 54-38 0-74-24-86-60 10 6 18 8 26 2z" opacity="0.45" />
      <path class="fur-gloss" d="M116 156c8-24 36-42 62-42 30 0 56 20 64 48 8 26-4 56-22 76-16 18-38 28-58 28-22 0-46-12-62-34-14-18-18-40-8-60z" />
    </g>
    <g class="paws">
      <path class="fur-light" d="M134 254c-10 12-32 12-42 0-12-12 2-34 20-38 18-4 34 12 34 22 0 8-4 12-12 16z" />
      <path class="fur-light" d="M224 254c10 12 32 12 42 0 12-12-2-34-20-38-18-4-34 12-34 22 0 8 4 12 12 16z" />
    </g>
    <g class="head head">
      <g class="ears">
        <path class="fur-medium" d="M132 90c-16 10-28 38-24 68 6-20 22-32 36-38 10-4 12-22-12-30z" />
        <path class="fur-medium" d="M218 90c16 10 28 38 24 68-6-20-22-32-36-38-10-4-12-22 12-30z" />
        <path class="inner-ear" d="M142 100c-8 4-18 24-18 40 12-6 22-16 30-22 4-6-2-14-12-18z" />
        <path class="inner-ear" d="M208 100c8 4 18 24 18 40-12-6-22-16-30-22-4-6 2-14 12-18z" />
      </g>
      <path class="fur-medium" d="M124 124c4-28 32-58 64-58s60 28 64 56c4 26-6 60-22 74-14 12-30 18-46 18s-32-6-46-18c-18-14-26-40-20-72z" />
      <path class="fur-light" d="M168 102c-30 0-56 26-56 62 0 34 26 58 56 58s56-24 56-58c0-36-26-62-56-62z" opacity="0.42" />
      <path class="fur-dark" d="M142 86c-18 6-34 38-30 70 6-20 20-32 36-38 12-4 12-24-6-32z" opacity="0.55" />
      <path class="fur-dark" d="M218 86c18 6 34 38 30 70-6-20-20-32-36-38-12-4-12-24 6-32z" opacity="0.55" />
      <g class="face">
        <g class="eye" transform="translate(144 152)">
          <ellipse class="eye-sclera" cx="0" cy="0" rx="22" ry="24" />
          <ellipse class="eye-pupil" cx="-2" cy="4" rx="8" ry="12" />
          <ellipse class="eye-shine" cx="-6" cy="-10" rx="6" ry="4" />
          <rect class="fur-medium blink" x="-24" y="-24" width="48" height="24" rx="12" />
        </g>
        <g class="eye" transform="translate(212 152)">
          <ellipse class="eye-sclera" cx="0" cy="0" rx="22" ry="24" />
          <ellipse class="eye-pupil" cx="2" cy="4" rx="8" ry="12" />
          <ellipse class="eye-shine" cx="6" cy="-10" rx="6" ry="4" />
          <rect class="fur-medium blink" x="-24" y="-24" width="48" height="24" rx="12" />
        </g>
        <ellipse class="nose" cx="178" cy="176" rx="10" ry="8" />
        <path class="line" d="M178 184v16" />
        <path class="line" d="M162 204c10 6 20 6 32 0" />
        <path class="tongue" d="M166 192c6 16 18 20 24 20s18-4 24-20c4-12-10-18-24-18s-30 6-24 18z" />
        <path class="whisker" d="M140 178c14 2 26 8 34 12" />
        <path class="whisker" d="M140 188c14 2 26 10 34 14" />
        <path class="whisker" d="M216 178c-14 2-26 8-34 12" />
        <path class="whisker" d="M216 188c-14 2-26 10-34 14" />
      </g>
    </g>
  </g>
</svg>
