<svg xmlns="http://www.w3.org/2000/svg" viewBox="0 0 32 32" shape-rendering="crispEdges">
  <rect width="32" height="32" fill="#1d1f2b" />
  <rect x="0" y="20" width="32" height="12" fill="#242836" />
  <!-- mug -->
  <g id="mug" fill="#d9f1ff">
    <rect x="9" y="18" width="14" height="8" />
    <rect x="8" y="19" width="1" height="6" />
    <rect x="23" y="19" width="3" height="5" />
    <rect x="26" y="20" width="1" height="3" />
    <rect x="24" y="21" width="2" height="1" />
    <rect x="24" y="22" width="1" height="1" />
  </g>
  <g fill="#b9d8ff">
    <rect x="10" y="19" width="12" height="5" />
    <rect x="11" y="20" width="10" height="3" />
  </g>
  <!-- steam -->
  <g fill="#f5faff">
    <rect x="13" y="10" width="2" height="6">
      <animate attributeName="y" values="10;9;10" dur="1.8s" repeatCount="indefinite" />
    </rect>
    <rect x="17" y="8" width="2" height="8">
      <animate attributeName="y" values="8;7;8" dur="2.2s" repeatCount="indefinite" />
    </rect>
  </g>
  <!-- cat outline -->
  <g fill="#38221c">
    <rect x="7" y="9" width="18" height="12" />
    <rect x="8" y="7" width="16" height="5" />
    <rect x="9" y="5" width="14" height="4" />
    <rect x="11" y="4" width="10" height="2" />
    <rect x="6" y="14" width="4" height="7" />
    <rect x="22" y="14" width="4" height="7" />
    <rect x="6" y="19" width="6" height="5" />
    <rect x="20" y="19" width="6" height="5" />
    <rect x="23" y="10" width="2" height="4" />
    <rect x="7" y="10" width="2" height="4" />
  </g>
  <!-- cat fur -->
  <g fill="#f8d7b6">
    <rect x="9" y="6" width="12" height="2" />
    <rect x="8" y="7" width="16" height="5" />
    <rect x="7" y="9" width="18" height="7" />
    <rect x="8" y="15" width="16" height="6" />
    <rect x="9" y="18" width="14" height="3" />
    <rect x="10" y="19" width="12" height="2" />
    <rect x="7" y="16" width="4" height="5" />
    <rect x="21" y="16" width="4" height="5" />
    <rect x="6" y="20" width="5" height="2" />
    <rect x="21" y="20" width="5" height="2" />
  </g>
  <g fill="#d9b48c">
    <rect x="8" y="14" width="3" height="2" />
    <rect x="20" y="14" width="3" height="2" />
    <rect x="10" y="18" width="3" height="2" />
    <rect x="19" y="18" width="3" height="2" />
    <rect x="13" y="20" width="6" height="1" />
  </g>
  <g fill="#fff0dc">
    <rect x="13" y="15" width="6" height="3" />
    <rect x="14" y="14" width="4" height="1" />
    <rect x="15" y="19" width="2" height="1" />
  </g>
  <!-- face -->
  <rect x="13" y="11" width="2" height="2" fill="#1b1d24" />
  <rect x="18" y="11" width="2" height="2" fill="#1b1d24" />
  <rect x="14" y="11" width="1" height="1" fill="#9de6c0" />
  <rect x="19" y="11" width="1" height="1" fill="#9de6c0" />
  <rect x="12" y="13" width="10" height="1" fill="#3b2014" />
  <rect x="13" y="14" width="8" height="1" fill="#3b2014" />
  <rect x="15" y="14" width="4" height="2" fill="#e58a7a" />
  <!-- paws hugging mug -->
  <g fill="#f8d7b6">
    <rect x="9" y="20" width="3" height="2" />
    <rect x="20" y="20" width="3" height="2" />
    <rect x="8" y="21" width="2" height="2" />
    <rect x="22" y="21" width="2" height="2" />
  </g>
</svg>
