<svg xmlns="http://www.w3.org/2000/svg" viewBox="0 0 32 32" shape-rendering="crispEdges">
  <!-- plaid blanket + check -->
  <rect x="3" y="18" width="26" height="8" fill="#895d3b"/>
  <rect x="3" y="20" width="26" height="1" fill="#b07a52"/>
  <rect x="3" y="23" width="26" height="1" fill="#b07a52"/>
  <rect x="8" y="18" width="1" height="8" fill="#b07a52"/>
  <rect x="15" y="18" width="1" height="8" fill="#b07a52"/>
  <rect x="22" y="18" width="1" height="8" fill="#b07a52"/>
  <!-- curled cat -->
  <rect x="10" y="9" width="12" height="8" fill="#111"/>
  <rect x="9" y="11" width="2" height="4" fill="#111"/>
  <rect x="21" y="9" width="2" height="3" fill="#111"/>
  <!-- content face -->
  <rect x="13" y="12" width="2" height="1" fill="#b4f0a7"/>
  <rect x="17" y="12" width="2" height="1" fill="#b4f0a7"/>
  <rect x="15" y="14" width="2" height="1" fill="#333"/>
  <!-- check mark -->
  <rect x="24" y="9" width="1" height="3" fill="#46c266"/>
  <rect x="25" y="11" width="2" height="1" fill="#46c266"/>
  <rect x="27" y="10" width="1" height="1" fill="#46c266"/>
</svg>
