<svg xmlns="http://www.w3.org/2000/svg" viewBox="0 0 32 32" shape-rendering="crispEdges">
  <rect width="32" height="32" fill="#232836" />
  <rect x="1" y="24" width="30" height="6" fill="#1a1f2b" />
  <!-- keyboard platform -->
  <rect x="4" y="22" width="24" height="2" fill="#0f131f" />
  <rect x="3" y="24" width="26" height="3" fill="#070a12" />
  <g fill="#3a445b">
    <rect x="5" y="23" width="1" height="1" />
    <rect x="7" y="23" width="1" height="1" />
    <rect x="9" y="23" width="1" height="1" />
    <rect x="11" y="23" width="1" height="1" />
    <rect x="13" y="23" width="1" height="1" />
    <rect x="15" y="23" width="1" height="1" />
    <rect x="17" y="23" width="1" height="1" />
    <rect x="19" y="23" width="1" height="1" />
    <rect x="21" y="23" width="1" height="1" />
    <rect x="23" y="23" width="1" height="1" />
    <rect x="25" y="23" width="1" height="1" />
  </g>
  <!-- warming cat -->
  <g fill="#34221c">
    <rect x="7" y="13" width="18" height="9" />
    <rect x="8" y="11" width="16" height="4" />
    <rect x="9" y="9" width="14" height="3" />
    <rect x="10" y="7" width="12" height="3" />
    <rect x="11" y="6" width="10" height="2" />
    <rect x="9" y="19" width="14" height="3" />
    <rect x="23" y="17" width="2" height="6" />
    <rect x="24" y="19" width="3" height="3" />
  </g>
  <g fill="#f6d3b1">
    <rect x="10" y="8" width="10" height="1" />
    <rect x="9" y="9" width="14" height="4" />
    <rect x="8" y="11" width="16" height="6" />
    <rect x="9" y="15" width="14" height="6" />
    <rect x="10" y="18" width="12" height="4" />
    <rect x="12" y="20" width="8" height="2" />
    <rect x="13" y="21" width="6" height="1" />
    <rect x="22" y="18" width="2" height="4" />
    <rect x="23" y="19" width="2" height="3" />
    <rect x="24" y="20" width="2" height="2" />
  </g>
  <g fill="#d4ae8a">
    <rect x="9" y="17" width="3" height="2" />
    <rect x="19" y="17" width="3" height="2" />
    <rect x="12" y="19" width="2" height="2" />
    <rect x="18" y="19" width="2" height="2" />
    <rect x="23" y="21" width="1" height="1" />
  </g>
  <g fill="#fff2de">
    <rect x="12" y="13" width="8" height="3" />
    <rect x="13" y="12" width="6" height="1" />
    <rect x="14" y="18" width="4" height="2" />
  </g>
  <!-- face -->
  <rect x="13" y="12" width="2" height="2" fill="#1b1d24" />
  <rect x="18" y="12" width="2" height="2" fill="#1b1d24" />
  <rect x="14" y="12" width="1" height="1" fill="#9de6c0" />
  <rect x="19" y="12" width="1" height="1" fill="#9de6c0" />
  <rect x="13" y="14" width="7" height="1" fill="#3a2012" />
  <rect x="14" y="15" width="5" height="1" fill="#3a2012" />
  <rect x="15" y="16" width="3" height="1" fill="#e88c80" />
  <rect x="15" y="17" width="3" height="1" fill="#d06c62" />
  <!-- paws -->
  <g fill="#f6d3b1">
    <rect x="9" y="21" width="3" height="1" />
    <rect x="20" y="21" width="3" height="1" />
  </g>
  <!-- heat shimmer -->
  <g fill="#f89c6c">
    <rect x="6" y="5" width="1" height="3">
      <animate attributeName="y" values="5;4;5" dur="2.5s" repeatCount="indefinite" />
    </rect>
    <rect x="25" y="4" width="1" height="4">
      <animate attributeName="y" values="4;3;4" dur="2.1s" repeatCount="indefinite" />
    </rect>
    <rect x="20" y="3" width="1" height="4">
      <animate attributeName="y" values="3;2;3" dur="2.8s" repeatCount="indefinite" />
    </rect>
  </g>
</svg>
