<svg xmlns="http://www.w3.org/2000/svg" viewBox="0 0 32 32" shape-rendering="crispEdges">
  <rect width="32" height="32" fill="#1b1d28" />
  <rect x="0" y="22" width="32" height="10" fill="#242637" />
  <!-- blanket -->
  <g fill="#6e4a8a">
    <rect x="5" y="17" width="22" height="10" />
    <rect x="6" y="16" width="20" height="3" />
    <rect x="7" y="15" width="18" height="2" />
  </g>
  <g fill="#845fa7">
    <rect x="7" y="17" width="18" height="6" />
    <rect x="8" y="18" width="16" height="4" />
    <rect x="9" y="19" width="14" height="3" />
  </g>
  <g fill="#a77ed0">
    <rect x="8" y="17" width="16" height="2" />
    <rect x="9" y="18" width="14" height="2" />
    <rect x="10" y="19" width="12" height="2" />
  </g>
  <!-- cat head peeking -->
  <g fill="#36211b">
    <rect x="11" y="9" width="10" height="8" />
    <rect x="12" y="7" width="8" height="3" />
    <rect x="13" y="6" width="6" height="2" />
    <rect x="14" y="5" width="4" height="1" />
    <rect x="11" y="12" width="10" height="5" />
    <rect x="9" y="13" width="3" height="4" />
    <rect x="21" y="13" width="3" height="4" />
  </g>
  <g fill="#f8d6b5">
    <rect x="12" y="7" width="8" height="3" />
    <rect x="11" y="9" width="10" height="6" />
    <rect x="12" y="11" width="8" height="5" />
    <rect x="13" y="12" width="6" height="4" />
    <rect x="12" y="14" width="8" height="2" />
  </g>
  <g fill="#d7b28d">
    <rect x="12" y="11" width="3" height="2" />
    <rect x="19" y="11" width="3" height="2" />
    <rect x="13" y="13" width="2" height="2" />
    <rect x="18" y="13" width="2" height="2" />
  </g>
  <g fill="#fff1dd">
    <rect x="14" y="13" width="4" height="2" />
    <rect x="15" y="12" width="2" height="1" />
  </g>
  <!-- face -->
  <rect x="14" y="10" width="2" height="2" fill="#1b1d23" />
  <rect x="18" y="10" width="2" height="2" fill="#1b1d23" />
  <rect x="15" y="10" width="1" height="1" fill="#9de6c0" />
  <rect x="19" y="10" width="1" height="1" fill="#9de6c0" />
  <rect x="13" y="12" width="8" height="1" fill="#3a1f14" />
  <rect x="14" y="13" width="6" height="1" fill="#3a1f14" />
  <rect x="15" y="14" width="4" height="1" fill="#d06c62" />
  <!-- candle -->
  <rect x="4" y="15" width="2" height="5" fill="#f1f5ff" />
  <rect x="3" y="20" width="4" height="1" fill="#cbd6f8" />
  <rect x="3" y="21" width="4" height="1" fill="#aab3dc" />
  <rect x="5" y="13" width="2" height="3" fill="#f6ab4c">
    <animate attributeName="y" values="13;12;13" dur="1.4s" repeatCount="indefinite" />
  </rect>
  <rect x="5" y="12" width="2" height="2" fill="#ffe7a3">
    <animate attributeName="opacity" values="1;0.6;1" dur="1.4s" repeatCount="indefinite" />
  </rect>
</svg>
