<svg width="320" height="320" viewBox="0 0 320 320" fill="none" xmlns="http://www.w3.org/2000/svg" role="img" aria-labelledby="title desc">
  <title id="title">Кот играет с клубком</title>
  <desc id="desc">Чёрный кот резво играет с клубком пряжи, лапы вытянуты вперёд, хвост в движении.</desc>
  <style>
    .shadow { fill: rgba(26, 22, 38, 0.18); }
    .fur-dark { fill: #1f1d2c; }
    .fur-medium { fill: #29263a; }
    .fur-light { fill: #34324a; }
    .inner-ear { fill: #f6a6b8; opacity: 0.8; }
    .eye-sclera { fill: #f8d779; }
    .eye-pupil { fill: #111018; }
    .eye-shine { fill: #ffffff; opacity: 0.85; }
    .nose { fill: #f6a6b8; }
    .whisker { stroke: #d8d6e6; stroke-width: 2.2; stroke-linecap: round; }
    .line { fill: none; stroke: #15121f; stroke-width: 2; stroke-linecap: round; stroke-linejoin: round; }
    .yarn { fill: #ff6d7a; }
    .thread { stroke: #ff6d7a; stroke-width: 3; stroke-linecap: round; stroke-linejoin: round; }
    .tail { transform-box: fill-box; transform-origin: 20% 80%; animation: tail-swish 2.8s ease-in-out infinite; }
    .head { transform-box: fill-box; transform-origin: 50% 80%; animation: head-chase 3.2s ease-in-out infinite; }
    .blink { transform-box: fill-box; transform-origin: 50% 0%; animation: blink 5.8s ease-in-out infinite; }
    .paw { transform-box: fill-box; transform-origin: 50% 50%; animation: paw-swipe 2.6s ease-in-out infinite; }
    .yarn { transform-box: fill-box; transform-origin: 50% 50%; animation: yarn-bounce 2.6s ease-in-out infinite; }
    @keyframes tail-swish {
      0%, 100% { transform: rotate(16deg); }
      50% { transform: rotate(-12deg); }
    }
    @keyframes head-chase {
      0%, 100% { transform: translateY(-4px); }
      50% { transform: translateY(2px); }
    }
    @keyframes blink {
      0%, 54%, 56%, 100% { transform: scaleY(0); }
      55% { transform: scaleY(1); }
    }
    @keyframes paw-swipe {
      0%, 100% { transform: rotate(-10deg); }
      50% { transform: rotate(12deg); }
    }
    @keyframes yarn-bounce {
      0%, 100% { transform: translateY(0); }
      50% { transform: translateY(-10px); }
    }
    @media (prefers-reduced-motion: reduce) {
      .tail, .head, .blink, .paw, .yarn { animation-duration: 0.01ms !important; animation-iteration-count: 1 !important; }
    }
  </style>
  <ellipse class="shadow" cx="168" cy="262" rx="110" ry="28" />
  <path class="thread" d="M90 246c30-6 46 4 60 14 14 10 24 18 48 14" />
  <circle class="yarn" cx="212" cy="242" r="26" />
  <path class="thread" d="M198 228c12 4 22 14 28 28" />
  <g class="cat">
    <path class="tail fur-medium" d="M108 178c-20 20-28 46-16 64 12 18 40 26 60 8 12-10 10-24-2-30s-26-8-28-18c-2-12-6-18-14-24z" />
    <g class="body">
      <path class="fur-medium" d="M96 154c18-24 56-38 86-32 32 6 52 34 50 64-2 32-26 58-58 66-30 6-64-6-82-28-14-18-14-40 4-70z" />
      <path class="fur-light" d="M118 220c6 16 32 30 54 30s42-12 48-26c-4 24-30 40-54 40-30 0-56-16-70-42 10 6 18 4 22-2z" opacity="0.4" />
    </g>
    <g class="paw">
      <path class="fur-light" d="M158 238c8 10 26 10 36 0s4-28-12-32c-14-4-30 8-30 18 0 6 4 8 6 14z" />
      <path class="fur-light" d="M124 214c-8 12-26 12-36 2-12-10-4-30 12-34s30 8 30 18c0 6-2 10-6 14z" />
    </g>
    <g class="head head">
      <path class="fur-medium" d="M114 132c4-26 30-48 60-48s54 20 58 46c4 26-6 52-22 66-12 12-26 16-40 16s-28-4-40-16c-16-14-24-38-16-64z" />
      <path class="fur-dark" d="M126 100c-16 6-30 28-26 56 6-18 20-26 30-30 10-4 14-20-4-26z" opacity="0.6" />
      <path class="fur-dark" d="M208 100c16 6 30 28 26 56-6-18-20-26-30-30-10-4-14-20 4-26z" opacity="0.6" />
      <path class="inner-ear" d="M132 108c-8 4-18 22-18 34 10-6 20-14 24-20 4-4-2-10-6-14z" />
      <path class="inner-ear" d="M206 108c8 4 18 22 18 34-10-6-20-14-24-20-4-4 2-10 6-14z" />
      <g class="face">
        <g class="eye" transform="translate(140 152)">
          <circle class="eye-sclera" cx="0" cy="0" r="20" />
          <ellipse class="eye-pupil" cx="-2" cy="4" rx="8" ry="10" />
          <ellipse class="eye-shine" cx="-6" cy="-6" rx="6" ry="4" />
          <rect class="fur-medium blink" x="-22" y="-20" width="44" height="20" rx="10" />
        </g>
        <g class="eye" transform="translate(196 152)">
          <circle class="eye-sclera" cx="0" cy="0" r="20" />
          <ellipse class="eye-pupil" cx="2" cy="4" rx="8" ry="10" />
          <ellipse class="eye-shine" cx="6" cy="-6" rx="6" ry="4" />
          <rect class="fur-medium blink" x="-22" y="-20" width="44" height="20" rx="10" />
        </g>
        <ellipse class="nose" cx="168" cy="172" rx="8" ry="6" />
        <path class="line" d="M168 178v10" />
        <path class="line" d="M156 188c6 6 14 6 20 0" />
        <path class="whisker" d="M140 170c12 2 22 6 30 10" />
        <path class="whisker" d="M200 170c-12 2-22 6-30 10" />
      </g>
    </g>
  </g>
</svg>
