<svg width="320" height="320" viewBox="0 0 320 320" fill="none" xmlns="http://www.w3.org/2000/svg" role="img" aria-labelledby="title desc">
  <title id="title">Кот укутался в плед</title>
  <desc id="desc">Чёрный кот уютно лежит на оранжевом пледе, моргает и потягивается, хвост выглядывает из-под ткани.</desc>
  <style>
    .shadow { fill: rgba(26, 22, 38, 0.2); }
    .fur-dark { fill: #1f1d2c; }
    .fur-medium { fill: #29263a; }
    .fur-light { fill: #34324a; }
    .inner-ear { fill: #f6a6b8; opacity: 0.8; }
    .eye-sclera { fill: #f8d779; }
    .eye-pupil { fill: #14131d; }
    .eye-shine { fill: #ffffff; opacity: 0.85; }
    .nose { fill: #f6a6b8; }
    .whisker { stroke: #d8d6e6; stroke-width: 2.4; stroke-linecap: round; }
    .line { fill: none; stroke: #15121f; stroke-width: 2; stroke-linecap: round; stroke-linejoin: round; }
    .blanket { fill: #ff9a52; }
    .blanket-shadow { fill: #f47f38; }
    .blanket-lines { stroke: rgba(255, 255, 255, 0.45); stroke-width: 2.4; stroke-linecap: round; }
    .tail { transform-box: fill-box; transform-origin: 20% 70%; animation: tail-peek 3.8s ease-in-out infinite; }
    .head { transform-box: fill-box; transform-origin: 50% 84%; animation: head-snuggle 4.4s ease-in-out infinite; }
    .blink { transform-box: fill-box; transform-origin: 50% 0%; animation: blink 7.2s ease-in-out infinite; }
    .blanket-wave { transform-box: fill-box; transform-origin: 50% 50%; animation: blanket-wave 5s ease-in-out infinite; }
    @keyframes tail-peek {
      0%, 100% { transform: translateY(0); }
      50% { transform: translateY(-6px); }
    }
    @keyframes head-snuggle {
      0%, 100% { transform: translateY(0); }
      50% { transform: translateY(4px); }
    }
    @keyframes blink {
      0%, 60%, 62%, 100% { transform: scaleY(0); }
      61% { transform: scaleY(1); }
    }
    @keyframes blanket-wave {
      0%, 100% { transform: skewX(0deg); }
      50% { transform: skewX(-2deg); }
    }
    @media (prefers-reduced-motion: reduce) {
      .tail, .head, .blink, .blanket-wave { animation-duration: 0.01ms !important; animation-iteration-count: 1 !important; }
    }
  </style>
  <ellipse class="shadow" cx="168" cy="268" rx="120" ry="30" />
  <g class="blanket blanket-wave">
    <path class="blanket-shadow" d="M60 206c20-28 72-44 118-44s86 16 102 40c12 18 0 46-20 60-22 16-58 22-94 22-36 0-70-8-96-22-22-12-32-34-10-56z" />
    <path class="blanket" d="M54 212c18-24 70-40 116-40s86 14 102 36c14 18 4 44-14 58-22 16-58 24-96 24-38 0-72-8-98-22-24-14-32-36-10-56z" />
    <g class="blanket-lines">
      <path d="M88 204c34 18 74 28 116 30" />
      <path d="M70 228c40 18 88 28 138 30" />
      <path d="M94 246c42 16 92 22 142 22" />
    </g>
  </g>
  <g class="cat">
    <path class="tail fur-medium" d="M236 214c22 12 32 34 26 52-6 18-28 30-46 20-10-6-8-18 0-24s14-14 10-24c-4-10 4-16 10-24z" />
    <g class="body">
      <path class="fur-medium" d="M100 184c10-26 46-46 82-46s70 18 82 44c12 26 2 52-18 72s-50 30-78 28c-28-2-56-18-72-44-14-22-6-40 4-54z" />
      <path class="fur-light" d="M124 238c10 16 34 30 56 32s44-8 54-20c-8 24-36 38-64 38-30 0-60-18-74-42 10 6 18 4 28-8z" opacity="0.4" />
    </g>
    <g class="head head">
      <path class="fur-medium" d="M118 144c2-28 28-54 60-54s58 26 60 54c2 22-10 48-24 60-10 10-24 16-38 16s-30-6-40-16c-14-12-20-34-18-60z" />
      <path class="fur-dark" d="M132 104c-16 6-32 34-28 64 6-18 20-30 34-34 10-4 10-22-6-30z" opacity="0.55" />
      <path class="fur-dark" d="M216 104c16 6 32 34 28 64-6-18-20-30-34-34-10-4-10-22 6-30z" opacity="0.55" />
      <path class="inner-ear" d="M138 112c-8 4-18 24-18 38 10-6 20-16 26-22 4-4-2-12-8-16z" />
      <path class="inner-ear" d="M206 112c8 4 18 24 18 38-10-6-20-16-26-22-4-4 2-12 8-16z" />
      <g class="face">
        <g class="eye" transform="translate(140 160)">
          <circle class="eye-sclera" cx="0" cy="0" r="20" />
          <ellipse class="eye-pupil" cx="-2" cy="2" rx="8" ry="10" />
          <ellipse class="eye-shine" cx="-6" cy="-8" rx="6" ry="4" />
          <rect class="fur-medium blink" x="-22" y="-20" width="44" height="20" rx="10" />
        </g>
        <g class="eye" transform="translate(198 160)">
          <circle class="eye-sclera" cx="0" cy="0" r="20" />
          <ellipse class="eye-pupil" cx="2" cy="2" rx="8" ry="10" />
          <ellipse class="eye-shine" cx="6" cy="-8" rx="6" ry="4" />
          <rect class="fur-medium blink" x="-22" y="-20" width="44" height="20" rx="10" />
        </g>
        <ellipse class="nose" cx="164" cy="180" rx="9" ry="7" />
        <path class="line" d="M164 186v12" />
        <path class="line" d="M152 198c6 6 14 6 22 0" />
        <path class="whisker" d="M134 178c12 2 22 6 30 10" />
        <path class="whisker" d="M212 178c-12 2-22 6-30 10" />
      </g>
    </g>
  </g>
</svg>
