<svg width="320" height="320" viewBox="0 0 320 320" fill="none" xmlns="http://www.w3.org/2000/svg" role="img" aria-labelledby="title desc">
  <title id="title">Кот проверяет плед</title>
  <desc id="desc">Чёрный кот приподнимает плед лапкой и внимательно изучает мягкость ткани.</desc>
  <style>
    .shadow { fill: rgba(26, 22, 38, 0.2); }
    .fur-dark { fill: #1f1d2c; }
    .fur-medium { fill: #29263a; }
    .fur-light { fill: #34324a; }
    .inner-ear { fill: #f6a6b8; opacity: 0.8; }
    .eye-sclera { fill: #f8d779; }
    .eye-pupil { fill: #14131d; }
    .eye-shine { fill: #ffffff; opacity: 0.85; }
    .nose { fill: #f6a6b8; }
    .whisker { stroke: #d8d6e6; stroke-width: 2.4; stroke-linecap: round; }
    .line { fill: none; stroke: #15121f; stroke-width: 2; stroke-linecap: round; stroke-linejoin: round; }
    .blanket { fill: #ffd26f; }
    .blanket-shadow { fill: #f5b34d; }
    .blanket-trim { stroke: rgba(255, 255, 255, 0.5); stroke-width: 2.6; stroke-linecap: round; }
    .tail { transform-box: fill-box; transform-origin: 25% 80%; animation: tail-wiggle 3.4s ease-in-out infinite; }
    .head { transform-box: fill-box; transform-origin: 50% 84%; animation: head-peek 4s ease-in-out infinite; }
    .blink { transform-box: fill-box; transform-origin: 50% 0%; animation: blink 6s ease-in-out infinite; }
    .paw { transform-box: fill-box; transform-origin: 70% 40%; animation: paw-lift 3s ease-in-out infinite; }
    .fabric { transform-box: fill-box; transform-origin: 20% 80%; animation: fabric-dip 3s ease-in-out infinite; }
    @keyframes tail-wiggle {
      0%, 100% { transform: rotate(12deg); }
      50% { transform: rotate(-6deg); }
    }
    @keyframes head-peek {
      0%, 100% { transform: translateY(0); }
      50% { transform: translateY(-6px); }
    }
    @keyframes blink {
      0%, 48%, 50%, 100% { transform: scaleY(0); }
      49% { transform: scaleY(1); }
    }
    @keyframes paw-lift {
      0%, 100% { transform: rotate(-6deg); }
      50% { transform: rotate(8deg); }
    }
    @keyframes fabric-dip {
      0%, 100% { transform: translateY(0); }
      50% { transform: translateY(6px); }
    }
    @media (prefers-reduced-motion: reduce) {
      .tail, .head, .blink, .paw, .fabric { animation-duration: 0.01ms !important; animation-iteration-count: 1 !important; }
    }
  </style>
  <ellipse class="shadow" cx="170" cy="270" rx="118" ry="28" />
  <g class="blanket fabric">
    <path class="blanket-shadow" d="M64 214c18-26 68-44 110-44s82 16 96 42c12 22-2 48-24 62s-58 20-92 18c-36-4-70-16-94-32-24-16-24-38 4-46z" />
    <path class="blanket" d="M56 220c16-22 66-40 110-40s84 14 100 38c14 22 2 46-18 60-24 16-60 22-96 22-36 0-70-8-96-22-26-16-28-38 0-58z" />
    <path class="blanket-trim" d="M78 222c36 16 76 24 116 24 42 0 82-8 108-20" />
  </g>
  <g class="cat">
    <path class="tail fur-medium" d="M238 208c20 12 28 34 20 50-8 16-30 26-46 18-12-6-12-18-4-24s18-12 16-22c-2-10 4-16 14-22z" />
    <g class="body">
      <path class="fur-medium" d="M108 172c8-26 40-46 74-48 36-2 70 16 84 42 14 24 6 54-12 76-18 22-46 32-72 30-28-2-58-16-74-38-16-20-12-42 0-62z" />
      <path class="fur-light" d="M130 226c8 18 34 32 56 34s46-10 54-24c-6 24-32 42-60 42-32 0-60-18-74-44 10 6 18 4 24-8z" opacity="0.4" />
    </g>
    <g class="paw">
      <path class="fur-light" d="M234 210c12 4 26 0 32-8 6-8-2-20-14-20-12 0-24 8-26 14-2 6 4 10 8 14z" />
      <path class="fur-light" d="M132 244c-10 10-28 10-38 0s-2-28 14-32c16-4 30 8 30 18 0 8-4 10-6 14z" />
    </g>
    <g class="head head">
      <path class="fur-medium" d="M120 140c4-26 28-52 58-52s56 24 60 50c4 24-6 52-20 66-12 10-26 16-40 16s-28-6-40-16c-16-12-24-34-18-64z" />
      <path class="fur-dark" d="M132 102c-16 6-32 32-28 62 6-18 20-28 32-32 10-4 12-22-6-30z" opacity="0.6" />
      <path class="fur-dark" d="M212 102c16 6 32 32 28 62-6-18-20-28-32-32-10-4-12-22 6-30z" opacity="0.6" />
      <path class="inner-ear" d="M136 110c-8 4-18 24-18 38 10-6 20-16 26-22 4-4-2-12-8-16z" />
      <path class="inner-ear" d="M204 110c8 4 18 24 18 38-10-6-20-16-26-22-4-4 2-12 8-16z" />
      <g class="face">
        <g class="eye" transform="translate(140 156)">
          <circle class="eye-sclera" cx="0" cy="0" r="22" />
          <ellipse class="eye-pupil" cx="-2" cy="4" rx="8" ry="12" />
          <ellipse class="eye-shine" cx="-6" cy="-8" rx="6" ry="4" />
          <rect class="fur-medium blink" x="-24" y="-22" width="48" height="22" rx="12" />
        </g>
        <g class="eye" transform="translate(198 156)">
          <circle class="eye-sclera" cx="0" cy="0" r="22" />
          <ellipse class="eye-pupil" cx="2" cy="4" rx="8" ry="12" />
          <ellipse class="eye-shine" cx="6" cy="-8" rx="6" ry="4" />
          <rect class="fur-medium blink" x="-24" y="-22" width="48" height="22" rx="12" />
        </g>
        <ellipse class="nose" cx="164" cy="178" rx="9" ry="7" />
        <path class="line" d="M164 184v14" />
        <path class="line" d="M150 198c8 6 16 6 24 0" />
        <path class="whisker" d="M134 176c12 2 24 8 30 12" />
        <path class="whisker" d="M210 176c-12 2-24 8-30 12" />
      </g>
    </g>
  </g>
</svg>
