<svg xmlns="http://www.w3.org/2000/svg" viewBox="0 0 32 32" shape-rendering="crispEdges">
  <rect width="32" height="32" fill="#161923" />
  <!-- monitor -->
  <rect x="4" y="4" width="24" height="14" fill="#0e111a" />
  <rect x="5" y="5" width="22" height="12" fill="#1d2533" />
  <rect x="6" y="6" width="20" height="10" fill="#293549" />
  <rect x="12" y="18" width="8" height="2" fill="#0e111a" />
  <rect x="13" y="20" width="6" height="1" fill="#0e111a" />
  <rect x="10" y="21" width="12" height="2" fill="#10141f" />
  <!-- stern cat -->
  <g fill="#36231c">
    <rect x="9" y="11" width="14" height="8" />
    <rect x="10" y="9" width="12" height="4" />
    <rect x="11" y="7" width="10" height="3" />
    <rect x="12" y="6" width="8" height="2" />
    <rect x="8" y="14" width="4" height="7" />
    <rect x="22" y="14" width="4" height="7" />
    <rect x="8" y="18" width="6" height="5" />
    <rect x="20" y="18" width="6" height="5" />
    <rect x="9" y="10" width="2" height="3" />
    <rect x="22" y="10" width="2" height="3" />
  </g>
  <g fill="#f6d5b4">
    <rect x="10" y="8" width="12" height="3" />
    <rect x="9" y="10" width="14" height="7" />
    <rect x="10" y="13" width="12" height="5" />
    <rect x="11" y="15" width="10" height="3" />
    <rect x="12" y="16" width="8" height="3" />
    <rect x="9" y="19" width="4" height="2" />
    <rect x="21" y="19" width="4" height="2" />
  </g>
  <g fill="#d6b18b">
    <rect x="10" y="13" width="3" height="2" />
    <rect x="20" y="13" width="3" height="2" />
    <rect x="11" y="15" width="2" height="2" />
    <rect x="19" y="15" width="2" height="2" />
    <rect x="13" y="17" width="6" height="1" />
  </g>
  <g fill="#fff1dc">
    <rect x="13" y="15" width="6" height="2" />
    <rect x="14" y="14" width="4" height="1" />
  </g>
  <!-- face -->
  <rect x="13" y="11" width="2" height="2" fill="#1a1c24" />
  <rect x="19" y="11" width="2" height="2" fill="#1a1c24" />
  <rect x="14" y="11" width="1" height="1" fill="#9de6c0" />
  <rect x="20" y="11" width="1" height="1" fill="#9de6c0" />
  <rect x="12" y="13" width="9" height="1" fill="#3a1f15" />
  <rect x="13" y="14" width="7" height="1" fill="#3a1f15" />
  <rect x="14" y="15" width="5" height="1" fill="#a84a4a" />
  <rect x="14" y="16" width="5" height="1" fill="#7c3334" />
  <!-- paws on table -->
  <g fill="#f6d5b4">
    <rect x="9" y="21" width="4" height="2" />
    <rect x="19" y="21" width="4" height="2" />
  </g>
  <!-- monitor flicker -->
  <rect x="7" y="7" width="18" height="8" fill="#31415a">
    <animate attributeName="opacity" values="0.9;1;0.9" dur="1.1s" repeatCount="indefinite" />
  </rect>
  <rect x="8" y="8" width="16" height="6" fill="#3f5070">
    <animate attributeName="opacity" values="0.6;0.8;0.6" dur="1.1s" repeatCount="indefinite" />
  </rect>
  <!-- stern eyebrows -->
  <rect x="12" y="10" width="4" height="1" fill="#36231c" />
  <rect x="18" y="10" width="4" height="1" fill="#36231c" />
</svg>
