<svg xmlns="http://www.w3.org/2000/svg" viewBox="0 0 32 32" shape-rendering="crispEdges">
  <rect width="32" height="32" fill="#1b232f" />
  <rect x="0" y="22" width="32" height="10" fill="#212a39" />
  <!-- yarn ball -->
  <g fill="#f26f8c">
    <rect x="6" y="20" width="6" height="6" />
    <rect x="5" y="21" width="8" height="4" />
    <rect x="4" y="22" width="10" height="2" />
  </g>
  <g fill="#ff8faa">
    <rect x="6" y="21" width="6" height="4" />
    <rect x="5" y="22" width="8" height="2" />
  </g>
  <g fill="#c94f6f">
    <rect x="7" y="21" width="1" height="4" />
    <rect x="9" y="21" width="1" height="4" />
    <rect x="6" y="22" width="4" height="1" />
  </g>
  <rect x="10" y="23" width="6" height="1" fill="#f26f8c">
    <animate attributeName="width" values="6;7;6" dur="1.3s" repeatCount="indefinite" />
  </rect>
  <!-- cat body -->
  <g fill="#37241d">
    <rect x="13" y="12" width="14" height="9" />
    <rect x="14" y="10" width="12" height="4" />
    <rect x="15" y="8" width="10" height="3" />
    <rect x="16" y="7" width="8" height="2" />
    <rect x="12" y="16" width="4" height="6" />
    <rect x="26" y="16" width="4" height="6" />
    <rect x="11" y="18" width="5" height="5" />
    <rect x="25" y="18" width="5" height="5" />
    <rect x="13" y="11" width="2" height="3" />
    <rect x="26" y="11" width="2" height="3" />
    <rect x="27" y="14" width="3" height="2" />
    <rect x="28" y="15" width="3" height="2" />
  </g>
  <g fill="#f7d5b4">
    <rect x="14" y="9" width="12" height="3" />
    <rect x="13" y="11" width="14" height="7" />
    <rect x="14" y="14" width="12" height="4" />
    <rect x="15" y="16" width="10" height="3" />
    <rect x="16" y="17" width="8" height="2" />
    <rect x="12" y="19" width="4" height="2" />
    <rect x="24" y="19" width="4" height="2" />
    <rect x="27" y="15" width="2" height="2" />
  </g>
  <g fill="#d6b18b">
    <rect x="14" y="13" width="3" height="2" />
    <rect x="24" y="13" width="3" height="2" />
    <rect x="15" y="15" width="2" height="2" />
    <rect x="23" y="15" width="2" height="2" />
    <rect x="16" y="17" width="6" height="1" />
  </g>
  <g fill="#fff1dc">
    <rect x="17" y="15" width="6" height="2" />
    <rect x="18" y="14" width="4" height="1" />
  </g>
  <!-- face -->
  <rect x="17" y="11" width="2" height="2" fill="#1b1d24" />
  <rect x="22" y="11" width="2" height="2" fill="#1b1d24" />
  <rect x="18" y="11" width="1" height="1" fill="#9de6c0" />
  <rect x="23" y="11" width="1" height="1" fill="#9de6c0" />
  <rect x="16" y="13" width="9" height="1" fill="#3b1f15" />
  <rect x="17" y="14" width="7" height="1" fill="#3b1f15" />
  <rect x="18" y="15" width="5" height="1" fill="#d06c62" />
  <!-- playful paws -->
  <g fill="#f7d5b4">
    <rect x="11" y="20" width="4" height="2" />
    <rect x="25" y="20" width="4" height="2" />
    <rect x="10" y="21" width="3" height="2" />
  </g>
  <!-- yarn string -->
  <rect x="12" y="22" width="8" height="1" fill="#ff8faa">
    <animate attributeName="x" values="12;11;12" dur="1.3s" repeatCount="indefinite" />
  </rect>
</svg>
