<svg xmlns="http://www.w3.org/2000/svg" viewBox="0 0 32 32" shape-rendering="crispEdges">
  <!-- Cat -->
  <g id="cat" fill="#111">
    <!-- ears -->
    <rect x="10" y="4" width="3" height="3" />
    <rect x="19" y="4" width="3" height="3" />
    <!-- head -->
    <rect x="10" y="7" width="12" height="7" />
    <!-- body -->
    <rect x="8" y="14" width="16" height="7" />
    <!-- paws on keyboard -->
    <rect x="11" y="21" width="3" height="1" />
    <rect x="18" y="21" width="3" height="1" />
    <!-- tail -->
    <rect x="24" y="14" width="2" height="6" />
    <rect x="26" y="16" width="2" height="2" />
  </g>
  <!-- face details -->
  <rect x="13" y="10" width="2" height="1" fill="#b4f0a7"/>
  <rect x="17" y="10" width="2" height="1" fill="#b4f0a7"/>
  <rect x="14" y="10" width="1" height="1" fill="#000"/>
  <rect x="18" y="10" width="1" height="1" fill="#000"/>
  <rect x="16" y="11" width="1" height="1" fill="#333"/>
  <!-- yawning mouth -->
  <rect x="15" y="12" width="3" height="2" fill="#5b2a5c"/>
  <!-- keyboard -->
  <rect x="4" y="22" width="24" height="2" fill="#444"/>
  <!-- keys -->
  <rect x="5" y="23" width="1" height="1" fill="#777"/>
  <rect x="8" y="23" width="1" height="1" fill="#777"/>
  <rect x="11" y="23" width="1" height="1" fill="#777"/>
  <rect x="14" y="23" width="1" height="1" fill="#777"/>
  <rect x="17" y="23" width="1" height="1" fill="#777"/>
  <rect x="20" y="23" width="1" height="1" fill="#777"/>
  <rect x="23" y="23" width="1" height="1" fill="#777"/>
</svg>
