<svg xmlns="http://www.w3.org/2000/svg" viewBox="0 0 32 32" shape-rendering="crispEdges">
  <!-- cat crouching -->
  <rect x="8" y="10" width="16" height="6" fill="#111"/>
  <rect x="10" y="6" width="12" height="6" fill="#111"/>
  <rect x="10" y="4" width="3" height="3" fill="#111"/>
  <rect x="19" y="4" width="3" height="3" fill="#111"/>
  <rect x="23" y="12" width="2" height="4" fill="#111"/>
  <!-- sly face -->
  <rect x="13" y="8" width="2" height="1" fill="#b4f0a7"/>
  <rect x="17" y="8" width="2" height="1" fill="#b4f0a7"/>
  <rect x="14" y="8" width="1" height="1" fill="#000"/>
  <rect x="18" y="8" width="1" height="1" fill="#000"/>
  <rect x="15" y="10" width="3" height="1" fill="#333"/>
  <!-- yarn ball -->
  <rect x="5" y="20" width="4" height="4" fill="#cc3b3b"/>
  <rect x="6" y="21" width="2" height="1" fill="#e56a6a"/>
  <rect x="6" y="22" width="2" height="1" fill="#e56a6a"/>
  <!-- thread -->
  <rect x="9" y="22" width="6" height="1" fill="#cc3b3b"/>
  <rect x="15" y="21" width="2" height="1" fill="#cc3b3b"/>
</svg>
