<svg width="320" height="320" viewBox="0 0 320 320" fill="none" xmlns="http://www.w3.org/2000/svg" role="img" aria-labelledby="title desc">
  <title id="title">Кот смотрит на пустую миску</title>
  <desc id="desc">Чёрный кот сидит на полу, настороженно глядя на пустую миску. Глаза широко раскрыты, хвост подрагивает.</desc>
  <style>
    .shadow { fill: rgba(26, 22, 38, 0.22); }
    .fur-dark { fill: #1f1d2c; }
    .fur-medium { fill: #29263a; }
    .fur-light { fill: #34324a; }
    .inner-ear { fill: #f6a6b8; opacity: 0.8; }
    .eye-sclera { fill: #f8d779; }
    .eye-pupil { fill: #14131d; }
    .eye-shine { fill: #ffffff; opacity: 0.85; }
    .nose { fill: #f6a6b8; }
    .whisker { stroke: #d8d6e6; stroke-width: 2.4; stroke-linecap: round; }
    .line { fill: none; stroke: #15121f; stroke-width: 2; stroke-linecap: round; stroke-linejoin: round; }
    .bowl { fill: #5f7cff; }
    .bowl-shadow { fill: #4453b8; }
    .tail { transform-box: fill-box; transform-origin: 20% 80%; animation: tail-flick 3.2s ease-in-out infinite; }
    .head { transform-box: fill-box; transform-origin: 50% 82%; animation: head-tilt 4.2s ease-in-out infinite; }
    .blink { transform-box: fill-box; transform-origin: 50% 0%; animation: blink 6.5s ease-in-out infinite; }
    .ears { transform-box: fill-box; transform-origin: 50% 0%; animation: ears-twitch 5.6s ease-in-out infinite; }
    @keyframes tail-flick {
      0%, 100% { transform: rotate(14deg); }
      40% { transform: rotate(-4deg); }
      60% { transform: rotate(8deg); }
    }
    @keyframes head-tilt {
      0%, 100% { transform: rotate(-2deg); }
      50% { transform: rotate(4deg); }
    }
    @keyframes blink {
      0%, 48%, 50%, 100% { transform: scaleY(0); }
      49% { transform: scaleY(1); }
    }
    @keyframes ears-twitch {
      0%, 100% { transform: rotate(0deg); }
      40% { transform: rotate(3deg); }
      60% { transform: rotate(-3deg); }
    }
    @media (prefers-reduced-motion: reduce) {
      .tail, .head, .blink, .ears { animation-duration: 0.01ms !important; animation-iteration-count: 1 !important; }
    }
  </style>
  <ellipse class="shadow" cx="160" cy="270" rx="104" ry="28" />
  <g class="cat">
    <path class="tail fur-medium" d="M244 184c20 10 30 32 24 48-6 18-26 28-46 20-12-4-12-16-4-22s18-12 16-22c-2-10 4-16 10-24z" />
    <g class="body">
      <path class="fur-medium" d="M104 142c4-30 28-56 54-62 30-6 64 10 82 40 20 32 12 78-6 106-18 26-46 40-70 38-28-4-56-22-72-52-12-22-6-48 12-70z" />
      <path class="fur-light" d="M130 224c10 20 38 36 64 36s48-12 58-30c-6 26-34 48-68 48-36 0-70-22-80-56 10 6 18 6 26 2z" opacity="0.4" />
    </g>
    <g class="paws">
      <path class="fur-light" d="M132 252c-8 10-28 10-38 0s0-30 16-34 30 8 30 18c0 6-4 10-8 16z" />
      <path class="fur-light" d="M218 252c8 10 28 10 38 0s0-30-16-34-30 8-30 18c0 6 4 10 8 16z" />
    </g>
    <g class="head head">
      <g class="ears">
        <path class="fur-medium" d="M126 88c-14 10-26 36-22 62 6-18 20-28 32-34 10-4 12-20-10-28z" />
        <path class="fur-medium" d="M214 88c14 10 26 36 22 62-6-18-20-28-32-34-10-4-12-20 10-28z" />
        <path class="inner-ear" d="M136 96c-8 4-18 24-18 40 10-6 20-16 26-22 4-4-2-14-8-18z" />
        <path class="inner-ear" d="M204 96c8 4 18 24 18 40-10-6-20-16-26-22-4-4 2-14 8-18z" />
      </g>
      <path class="fur-medium" d="M120 120c4-26 30-52 60-52s56 24 60 50c4 24-6 54-20 68-12 12-26 16-40 16s-28-4-40-16c-16-12-24-36-20-66z" />
      <path class="fur-light" d="M160 98c-30 0-54 24-54 58 0 30 24 54 54 54s54-24 54-54c0-34-24-58-54-58z" opacity="0.36" />
      <path class="fur-dark" d="M134 84c-18 6-32 36-28 66 6-18 20-30 34-34 10-4 10-22-6-32z" opacity="0.55" />
      <path class="fur-dark" d="M214 84c18 6 32 36 28 66-6-18-20-30-34-34-10-4-10-22 6-32z" opacity="0.55" />
      <g class="face">
        <g class="eye" transform="translate(136 146)">
          <circle class="eye-sclera" cx="0" cy="0" r="24" />
          <ellipse class="eye-pupil" cx="-2" cy="4" rx="8" ry="12" />
          <ellipse class="eye-shine" cx="-6" cy="-10" rx="6" ry="4" />
          <rect class="fur-medium blink" x="-26" y="-24" width="52" height="24" rx="12" />
        </g>
        <g class="eye" transform="translate(200 146)">
          <circle class="eye-sclera" cx="0" cy="0" r="24" />
          <ellipse class="eye-pupil" cx="2" cy="4" rx="8" ry="12" />
          <ellipse class="eye-shine" cx="6" cy="-10" rx="6" ry="4" />
          <rect class="fur-medium blink" x="-26" y="-24" width="52" height="24" rx="12" />
        </g>
        <ellipse class="nose" cx="164" cy="172" rx="9" ry="7" />
        <path class="line" d="M164 178v18" />
        <path class="line" d="M148 200c8 6 16 6 24 0" />
        <path class="whisker" d="M126 176c12 2 24 8 32 12" />
        <path class="whisker" d="M210 176c-12 2-24 8-32 12" />
      </g>
    </g>
  </g>
  <g class="bowl" transform="translate(74 230)">
    <ellipse class="bowl-shadow" cx="58" cy="30" rx="58" ry="18" />
    <path d="M0 12c0-10 12-18 58-18s58 8 58 18v20c0 18-18 32-58 32s-58-14-58-32V12z" />
    <path fill="#7794ff" d="M8 12c0-8 16-14 50-14s50 6 50 14-16 14-50 14-50-6-50-14z" />
  </g>
</svg>
