<svg xmlns="http://www.w3.org/2000/svg" viewBox="0 0 32 32" shape-rendering="crispEdges">
  <rect width="32" height="32" fill="#181d27" />
  <rect x="0" y="22" width="32" height="10" fill="#1f2531" />
  <!-- storage box -->
  <g fill="#39475e">
    <rect x="4" y="20" width="24" height="6" />
    <rect x="3" y="21" width="26" height="4" />
  </g>
  <g fill="#4f5f7a">
    <rect x="5" y="21" width="22" height="3" />
    <rect x="6" y="22" width="20" height="2" />
  </g>
  <!-- hidden yarn -->
  <g fill="#f37bb0">
    <rect x="20" y="18" width="6" height="4" />
    <rect x="19" y="19" width="8" height="2" />
  </g>
  <g fill="#ff97c6">
    <rect x="21" y="19" width="4" height="2" />
  </g>
  <rect x="22" y="20" width="1" height="2" fill="#d96095">
    <animate attributeName="opacity" values="1;0.3;1" dur="1.5s" repeatCount="indefinite" />
  </rect>
  <!-- cat crouching -->
  <g fill="#37241d">
    <rect x="7" y="11" width="13" height="9" />
    <rect x="8" y="9" width="11" height="4" />
    <rect x="9" y="7" width="9" height="3" />
    <rect x="10" y="6" width="7" height="2" />
    <rect x="6" y="14" width="4" height="7" />
    <rect x="18" y="14" width="4" height="7" />
    <rect x="5" y="17" width="5" height="5" />
    <rect x="17" y="17" width="5" height="5" />
    <rect x="6" y="10" width="2" height="4" />
    <rect x="18" y="10" width="2" height="4" />
    <rect x="19" y="14" width="6" height="2" />
  </g>
  <g fill="#f7d5b4">
    <rect x="8" y="8" width="11" height="3" />
    <rect x="7" y="10" width="13" height="7" />
    <rect x="8" y="13" width="11" height="4" />
    <rect x="9" y="15" width="9" height="3" />
    <rect x="10" y="16" width="7" height="2" />
    <rect x="6" y="18" width="4" height="2" />
    <rect x="16" y="18" width="4" height="2" />
    <rect x="20" y="14" width="3" height="2" />
  </g>
  <g fill="#d6b18b">
    <rect x="8" y="12" width="3" height="2" />
    <rect x="16" y="12" width="3" height="2" />
    <rect x="9" y="14" width="2" height="2" />
    <rect x="15" y="14" width="2" height="2" />
    <rect x="10" y="16" width="5" height="1" />
  </g>
  <g fill="#fff1dd">
    <rect x="11" y="14" width="4" height="2" />
    <rect x="12" y="13" width="2" height="1" />
  </g>
  <!-- face -->
  <rect x="11" y="11" width="2" height="2" fill="#1b1d24" />
  <rect x="15" y="11" width="2" height="2" fill="#1b1d24" />
  <rect x="12" y="11" width="1" height="1" fill="#9de6c0" />
  <rect x="16" y="11" width="1" height="1" fill="#9de6c0" />
  <rect x="10" y="13" width="8" height="1" fill="#3b1f15" />
  <rect x="11" y="14" width="6" height="1" fill="#3b1f15" />
  <rect x="12" y="15" width="4" height="1" fill="#a84a4a" />
  <rect x="12" y="16" width="4" height="1" fill="#7c3334" />
  <!-- tail covering yarn -->
  <g fill="#f7d5b4">
    <rect x="18" y="18" width="5" height="2" />
    <rect x="19" y="19" width="4" height="2" />
    <rect x="20" y="20" width="3" height="2" />
  </g>
  <rect x="20" y="21" width="4" height="1" fill="#37241d">
    <animate attributeName="x" values="20;21;20" dur="1.6s" repeatCount="indefinite" />
  </rect>
</svg>
