<svg width="320" height="320" viewBox="0 0 320 320" fill="none" xmlns="http://www.w3.org/2000/svg" role="img" aria-labelledby="title desc">
  <title id="title">Кот охраняет монитор</title>
  <desc id="desc">Чёрный кот сидит строго перед монитором, за которым светится тёплый интерфейс.</desc>
  <style>
    .shadow { fill: rgba(26, 22, 38, 0.22); }
    .monitor-body { fill: #20263a; }
    .monitor-screen { fill: url(#screenGradient); }
    .monitor-stand { fill: #1a1f30; }
    .fur-dark { fill: #1f1d2c; }
    .fur-medium { fill: #29263a; }
    .fur-light { fill: #34324a; }
    .inner-ear { fill: #f6a6b8; opacity: 0.8; }
    .eye-sclera { fill: #f8d779; }
    .eye-pupil { fill: #111018; }
    .eye-shine { fill: #ffffff; opacity: 0.85; }
    .nose { fill: #f6a6b8; }
    .whisker { stroke: #d8d6e6; stroke-width: 2.4; stroke-linecap: round; }
    .line { fill: none; stroke: #15121f; stroke-width: 2; stroke-linecap: round; stroke-linejoin: round; }
    .tail { transform-box: fill-box; transform-origin: 20% 80%; animation: tail-guard 3.4s ease-in-out infinite; }
    .head { transform-box: fill-box; transform-origin: 50% 82%; animation: head-guard 4.2s ease-in-out infinite; }
    .blink { transform-box: fill-box; transform-origin: 50% 0%; animation: blink 8s ease-in-out infinite; }
    .screen-glow { animation: screen-glow 4s ease-in-out infinite; }
    .paw { transform-box: fill-box; transform-origin: 50% 50%; animation: paw-tap 5s ease-in-out infinite; }
    @keyframes tail-guard {
      0%, 100% { transform: rotate(6deg); }
      50% { transform: rotate(-4deg); }
    }
    @keyframes head-guard {
      0%, 100% { transform: translateY(0); }
      50% { transform: translateY(-3px); }
    }
    @keyframes blink {
      0%, 76%, 78%, 100% { transform: scaleY(0); }
      77% { transform: scaleY(1); }
    }
    @keyframes screen-glow {
      0%, 100% { opacity: 0.9; }
      50% { opacity: 0.6; }
    }
    @keyframes paw-tap {
      0%, 100% { transform: translateY(0); }
      40% { transform: translateY(2px); }
    }
    @media (prefers-reduced-motion: reduce) {
      .tail, .head, .blink, .screen-glow, .paw { animation-duration: 0.01ms !important; animation-iteration-count: 1 !important; }
    }
  </style>
  <defs>
    <linearGradient id="screenGradient" x1="80" y1="96" x2="240" y2="200" gradientUnits="userSpaceOnUse">
      <stop offset="0" stop-color="#ffe4b5" />
      <stop offset="1" stop-color="#ffb970" />
    </linearGradient>
  </defs>
  <ellipse class="shadow" cx="160" cy="270" rx="110" ry="28" />
  <g class="monitor">
    <rect class="monitor-body" x="80" y="90" width="160" height="120" rx="16" />
    <rect class="monitor-screen screen-glow" x="92" y="102" width="136" height="96" rx="12" />
    <rect class="monitor-stand" x="146" y="210" width="28" height="36" rx="8" />
    <rect class="monitor-stand" x="120" y="240" width="80" height="12" rx="6" />
  </g>
  <g class="cat">
    <path class="tail fur-medium" d="M240 202c20 10 26 32 18 48-8 16-28 26-44 16-10-6-8-18 0-24s16-12 12-20-2-14 14-20z" />
    <g class="body">
      <path class="fur-medium" d="M108 162c6-26 32-46 64-48 34-2 68 16 82 40 16 26 8 56-10 78-18 22-44 34-68 32-26-2-54-16-70-38-16-20-16-44 2-64z" />
      <path class="fur-light" d="M130 220c10 18 32 32 52 34 20 2 42-10 50-22-6 22-30 40-56 40-30 0-58-18-72-42 8 4 16 4 26-10z" opacity="0.4" />
    </g>
    <g class="paw">
      <path class="fur-light" d="M134 246c-8 10-26 10-36 0s-2-28 14-30c16-2 28 10 28 18 0 6-2 8-6 12z" />
      <path class="fur-light" d="M216 242c10 6 24 4 30-6 6-10-4-22-18-22-12 0-22 8-24 14-2 6 6 10 12 14z" />
    </g>
    <g class="head head">
      <path class="fur-medium" d="M122 130c4-26 28-50 58-50s56 24 60 50c2 24-6 52-20 66-12 12-26 16-40 16s-28-4-40-16c-16-14-26-40-18-66z" />
      <path class="fur-dark" d="M134 96c-16 6-30 32-26 60 6-18 20-28 32-30 10-2 12-20-6-30z" opacity="0.55" />
      <path class="fur-dark" d="M212 96c16 6 30 32 26 60-6-18-20-28-32-30-10-2-12-20 6-30z" opacity="0.55" />
      <path class="inner-ear" d="M138 104c-8 4-18 22-18 36 10-6 20-14 26-20 4-4-2-12-8-16z" />
      <path class="inner-ear" d="M204 104c8 4 18 22 18 36-10-6-20-14-26-20-4-4 2-12 8-16z" />
      <g class="face">
        <g class="eye" transform="translate(142 154)">
          <circle class="eye-sclera" cx="0" cy="0" r="20" />
          <ellipse class="eye-pupil" cx="-2" cy="4" rx="8" ry="10" />
          <ellipse class="eye-shine" cx="-6" cy="-6" rx="6" ry="4" />
          <rect class="fur-medium blink" x="-22" y="-20" width="44" height="20" rx="10" />
        </g>
        <g class="eye" transform="translate(198 154)">
          <circle class="eye-sclera" cx="0" cy="0" r="20" />
          <ellipse class="eye-pupil" cx="2" cy="4" rx="8" ry="10" />
          <ellipse class="eye-shine" cx="6" cy="-6" rx="6" ry="4" />
          <rect class="fur-medium blink" x="-22" y="-20" width="44" height="20" rx="10" />
        </g>
        <ellipse class="nose" cx="164" cy="174" rx="9" ry="7" />
        <path class="line" d="M164 180v12" />
        <path class="line" d="M150 192c8 6 16 6 24 0" />
        <path class="whisker" d="M134 172c12 2 24 8 32 12" />
        <path class="whisker" d="M210 172c-12 2-24 8-32 12" />
      </g>
    </g>
  </g>
</svg>
