<svg xmlns="http://www.w3.org/2000/svg" viewBox="0 0 32 32" shape-rendering="crispEdges">
  <rect width="32" height="32" fill="#1c202c" />
  <rect x="0" y="21" width="32" height="11" fill="#222837" />
  <!-- blanket fold -->
  <g fill="#4a6a9d">
    <rect x="6" y="18" width="20" height="8" />
    <rect x="7" y="16" width="18" height="4" />
    <rect x="8" y="15" width="16" height="2" />
  </g>
  <g fill="#5f84c0">
    <rect x="7" y="18" width="18" height="4" />
    <rect x="8" y="19" width="16" height="3" />
    <rect x="9" y="20" width="14" height="2" />
  </g>
  <g fill="#79a1e6">
    <rect x="8" y="17" width="16" height="2" />
    <rect x="9" y="18" width="14" height="2" />
    <rect x="10" y="19" width="12" height="2" />
  </g>
  <!-- lifted edge -->
  <g fill="#90b9ff">
    <rect x="20" y="12" width="6" height="6" />
    <rect x="21" y="11" width="4" height="1" />
    <rect x="22" y="10" width="2" height="1" />
  </g>
  <!-- cat body -->
  <g fill="#36231c">
    <rect x="9" y="10" width="12" height="9" />
    <rect x="10" y="8" width="10" height="4" />
    <rect x="11" y="6" width="8" height="3" />
    <rect x="12" y="5" width="6" height="2" />
    <rect x="8" y="14" width="4" height="7" />
    <rect x="19" y="14" width="4" height="7" />
    <rect x="8" y="18" width="5" height="5" />
    <rect x="18" y="18" width="5" height="5" />
    <rect x="23" y="13" width="3" height="4" />
  </g>
  <g fill="#f7d6b4">
    <rect x="10" y="7" width="10" height="3" />
    <rect x="9" y="9" width="12" height="8" />
    <rect x="10" y="12" width="10" height="5" />
    <rect x="11" y="14" width="8" height="4" />
    <rect x="12" y="15" width="6" height="4" />
    <rect x="9" y="18" width="4" height="3" />
    <rect x="19" y="18" width="4" height="3" />
    <rect x="23" y="14" width="2" height="3" />
  </g>
  <g fill="#d7b28d">
    <rect x="10" y="13" width="3" height="2" />
    <rect x="18" y="13" width="3" height="2" />
    <rect x="11" y="15" width="2" height="2" />
    <rect x="17" y="15" width="2" height="2" />
    <rect x="12" y="17" width="6" height="1" />
  </g>
  <g fill="#fff2de">
    <rect x="12" y="14" width="6" height="2" />
    <rect x="13" y="13" width="4" height="1" />
  </g>
  <!-- face -->
  <rect x="12" y="10" width="2" height="2" fill="#1b1d23" />
  <rect x="17" y="10" width="2" height="2" fill="#1b1d23" />
  <rect x="13" y="10" width="1" height="1" fill="#9de6c0" />
  <rect x="18" y="10" width="1" height="1" fill="#9de6c0" />
  <rect x="11" y="12" width="10" height="1" fill="#3b1f16" />
  <rect x="12" y="13" width="8" height="1" fill="#3b1f16" />
  <rect x="13" y="14" width="6" height="1" fill="#d06c62" />
  <!-- checking paw -->
  <g fill="#f7d6b4">
    <rect x="21" y="15" width="3" height="2" />
    <rect x="22" y="16" width="3" height="2" />
    <rect x="23" y="17" width="2" height="2" />
  </g>
  <rect x="21" y="14" width="3" height="1" fill="#f7d6b4">
    <animate attributeName="y" values="14;13;14" dur="1.6s" repeatCount="indefinite" />
  </rect>
</svg>
