<svg width="320" height="320" viewBox="0 0 320 320" fill="none" xmlns="http://www.w3.org/2000/svg" role="img" aria-labelledby="title desc">
  <title id="title">Кот зевает, растянувшись на клавиатуре</title>
  <desc id="desc">Глянцевый чёрный кот с большими янтарными глазами лежит на клавиатуре и зевает, хвост покачивается.</desc>
  <style>
    .shadow { fill: rgba(26, 22, 38, 0.18); }
    .keyboard-base { fill: #2f3547; }
    .keyboard-key { fill: #3d445b; }
    .keyboard-light { fill: #5c6584; }
    .fur-dark { fill: #1f1d2c; }
    .fur-medium { fill: #29263a; }
    .fur-light { fill: #34324a; }
    .eye-sclera { fill: #f8d779; }
    .eye-pupil { fill: #1a1a27; }
    .eye-shine { fill: #ffffff; opacity: 0.9; }
    .nose { fill: #f6a6b8; }
    .inner-ear { fill: #f6a6b8; opacity: 0.8; }
    .tongue { fill: #f47f98; }
    .whisker { stroke: #d8d6e6; stroke-width: 2.4; stroke-linecap: round; }
    .line { fill: none; stroke: #15121f; stroke-width: 2; stroke-linecap: round; stroke-linejoin: round; }
    .tail { transform-box: fill-box; transform-origin: 20% 70%; animation: tail-sway 3.6s ease-in-out infinite; }
    .head { transform-box: fill-box; transform-origin: 50% 80%; animation: head-bob 4.2s ease-in-out infinite; }
    .blink { transform-box: fill-box; transform-origin: 50% 0%; animation: blink 6s ease-in-out infinite; }
    .steam { transform-box: fill-box; transform-origin: 50% 100%; animation: steam-rise 4s ease-in-out infinite; }
    .paw { transform-box: fill-box; transform-origin: 50% 50%; animation: paw-knead 5s ease-in-out infinite; }
    @keyframes tail-sway {
      0%, 100% { transform: rotate(6deg); }
      50% { transform: rotate(-8deg); }
    }
    @keyframes head-bob {
      0%, 100% { transform: translateY(0); }
      50% { transform: translateY(-4px); }
    }
    @keyframes blink {
      0%, 44%, 46%, 100% { transform: scaleY(0); }
      45% { transform: scaleY(1); }
    }
    @keyframes steam-rise {
      0% { opacity: 0.2; transform: translateY(6px) scale(0.9); }
      50% { opacity: 0.6; }
      100% { opacity: 0; transform: translateY(-14px) scale(1.1); }
    }
    @keyframes paw-knead {
      0%, 100% { transform: translateY(0); }
      50% { transform: translateY(2px); }
    }
    @media (prefers-reduced-motion: reduce) {
      .tail, .head, .blink, .steam, .paw { animation-duration: 0.01ms !important; animation-iteration-count: 1 !important; }
    }
  </style>
  <ellipse class="shadow" cx="164" cy="260" rx="114" ry="26" />
  <g class="keyboard">
    <rect class="keyboard-base" x="48" y="220" width="232" height="40" rx="12" />
    <rect class="keyboard-light" x="60" y="230" width="208" height="12" rx="6" />
    <rect class="keyboard-key" x="60" y="246" width="208" height="8" rx="4" />
    <g fill="#4a516a">
      <rect x="70" y="233" width="24" height="8" rx="3" />
      <rect x="102" y="233" width="24" height="8" rx="3" />
      <rect x="134" y="233" width="24" height="8" rx="3" />
      <rect x="166" y="233" width="24" height="8" rx="3" />
      <rect x="198" y="233" width="24" height="8" rx="3" />
      <rect x="230" y="233" width="24" height="8" rx="3" />
    </g>
  </g>
  <g class="cat">
    <path class="tail fur-medium" d="M248 176c18 10 24 30 18 46-6 16-24 28-42 20-8-4-8-14-2-18s12-12 10-20c-2-9 10-14 16-28z" />
    <g class="body">
      <path class="fur-medium" d="M84 146c10-32 52-48 92-40 42 8 80 40 76 86-4 46-46 66-94 64-42-2-84-26-90-64-4-22 8-36 16-46z" />
      <path class="fur-light" d="M112 212c8 12 30 26 54 26s46-12 56-24c-10 24-38 38-66 38-30 0-60-18-70-40 8 4 18 6 26 0z" opacity="0.6" />
    </g>
    <g class="paw">
      <path class="fur-light" d="M122 248c-10 6-26 6-32-2-6-8 4-20 16-22 12-2 24 6 26 14 2 6-6 8-10 10z" />
      <path class="fur-light" d="M210 248c10 6 26 6 32-2 6-8-4-20-16-22s-24 6-26 14c-2 6 6 8 10 10z" />
    </g>
    <g class="head">
      <path class="fur-medium" d="M104 122c2-24 26-52 60-52 34 0 58 28 60 52 2 22-10 48-24 58-10 8-22 12-36 12s-28-4-38-12c-16-10-24-36-22-58z" />
      <path class="fur-dark" d="M128 76c-14 2-34 32-28 64 4-18 16-28 28-36 8-6 16-18 0-28z" opacity="0.6" />
      <path class="fur-dark" d="M216 76c14 2 34 32 28 64-4-18-16-28-28-36-8-6-16-18 0-28z" opacity="0.6" />
      <path class="fur-medium" d="M128 84c-20-2-44 36-36 76 10-22 28-28 44-30 12-2 18-24-8-46z" opacity="0.7" />
      <path class="fur-medium" d="M220 84c20-2 44 36 36 76-10-22-28-28-44-30-12-2-18-24 8-46z" opacity="0.7" />
      <path class="fur-light" d="M160 98c-30 0-54 26-54 60 0 28 26 46 54 46s54-18 54-46c0-34-24-60-54-60z" opacity="0.4" />
      <path class="inner-ear" d="M134 94c-8 4-20 26-20 42 12-8 24-18 28-24 4-4-2-14-8-18z" />
      <path class="inner-ear" d="M210 94c8 4 20 26 20 42-12-8-24-18-28-24-4-4 2-14 8-18z" />
      <g class="face">
        <g class="eye" transform="translate(128 140)">
          <circle class="eye-sclera" cx="0" cy="0" r="22" />
          <ellipse class="eye-pupil" cx="-2" cy="2" rx="8" ry="12" />
          <ellipse class="eye-shine" cx="-6" cy="-8" rx="6" ry="4" />
          <rect class="fur-medium blink" x="-24" y="-22" width="48" height="24" rx="12" />
        </g>
        <g class="eye" transform="translate(196 140)">
          <circle class="eye-sclera" cx="0" cy="0" r="22" />
          <ellipse class="eye-pupil" cx="2" cy="2" rx="8" ry="12" />
          <ellipse class="eye-shine" cx="6" cy="-8" rx="6" ry="4" />
          <rect class="fur-medium blink" x="-24" y="-22" width="48" height="24" rx="12" />
        </g>
        <ellipse class="nose" cx="162" cy="164" rx="10" ry="8" />
        <path class="line" d="M162 172v16" />
        <path class="whisker" d="M120 170c12 0 24 4 32 10" />
        <path class="whisker" d="M120 182c12 2 22 6 30 12" />
        <path class="whisker" d="M204 170c-12 0-24 4-32 10" />
        <path class="whisker" d="M204 182c-12 2-22 6-30 12" />
        <path class="tongue" d="M148 184c4 18 18 24 28 24s24-6 28-24c4-16-8-22-28-22s-32 6-28 22z" />
        <path class="line" d="M148 184c12-6 28-6 40 0" />
        <path class="line" d="M152 200c8 6 20 6 28 0" />
      </g>
    </g>
  </g>
  <g class="steam" opacity="0.4">
    <path fill="#dfe7ff" d="M80 214c-4-10 4-18 10-22s10-10 8-18c8 6 12 18 6 26s-12 12-8 18c4 6-6 10-16 4z" />
  </g>
</svg>
