<svg xmlns="http://www.w3.org/2000/svg" viewBox="0 0 32 32" shape-rendering="crispEdges">
  <rect width="32" height="32" fill="#1f2430" />
  <!-- desk glow -->
  <rect x="2" y="24" width="28" height="6" fill="#2a3140" />
  <!-- keyboard base -->
  <g id="keyboard">
    <rect x="5" y="22" width="22" height="3" fill="#131721" />
    <rect x="4" y="25" width="24" height="3" fill="#0c0f18" />
    <rect x="6" y="23" width="1" height="1" fill="#394156" />
    <rect x="8" y="23" width="1" height="1" fill="#394156" />
    <rect x="10" y="23" width="1" height="1" fill="#394156" />
    <rect x="12" y="23" width="1" height="1" fill="#394156" />
    <rect x="14" y="23" width="1" height="1" fill="#394156" />
    <rect x="16" y="23" width="1" height="1" fill="#394156" />
    <rect x="18" y="23" width="1" height="1" fill="#394156" />
    <rect x="20" y="23" width="1" height="1" fill="#394156" />
    <rect x="22" y="23" width="1" height="1" fill="#394156" />
    <rect x="24" y="23" width="1" height="1" fill="#394156" />
  </g>
  <!-- sleepy cat -->
  <g id="cat" fill="#33211a">
    <!-- ears outline -->
    <rect x="9" y="5" width="3" height="3" />
    <rect x="20" y="5" width="3" height="3" />
    <!-- head outline -->
    <rect x="9" y="8" width="14" height="9" />
    <!-- body outline -->
    <rect x="8" y="17" width="16" height="6" />
    <rect x="7" y="18" width="18" height="4" />
    <!-- tail outline -->
    <rect x="23" y="17" width="2" height="5" />
    <rect x="24" y="19" width="3" height="3" />
  </g>
  <g id="fur" fill="#f7d6b7">
    <rect x="10" y="6" width="1" height="2" />
    <rect x="11" y="7" width="2" height="2" />
    <rect x="12" y="6" width="2" height="2" />
    <rect x="13" y="8" width="10" height="7" />
    <rect x="11" y="9" width="12" height="7" />
    <rect x="10" y="11" width="14" height="7" />
    <rect x="9" y="13" width="16" height="6" />
    <rect x="9" y="18" width="14" height="4" />
    <rect x="10" y="17" width="12" height="5" />
    <rect x="11" y="16" width="10" height="5" />
    <rect x="12" y="15" width="8" height="5" />
    <rect x="13" y="14" width="6" height="5" />
    <rect x="23" y="18" width="1" height="3" />
    <rect x="24" y="19" width="2" height="3" />
    <rect x="25" y="20" width="2" height="2" />
  </g>
  <g id="fur-shadow" fill="#d8b38e">
    <rect x="9" y="15" width="3" height="2" />
    <rect x="20" y="15" width="3" height="2" />
    <rect x="10" y="19" width="3" height="2" />
    <rect x="19" y="19" width="3" height="2" />
    <rect x="12" y="21" width="8" height="1" />
    <rect x="23" y="20" width="2" height="1" />
    <rect x="24" y="21" width="2" height="1" />
  </g>
  <g id="chest" fill="#fff1d9">
    <rect x="14" y="16" width="4" height="4" />
    <rect x="15" y="15" width="2" height="1" />
    <rect x="14" y="18" width="4" height="1" />
  </g>
  <!-- paws -->
  <g fill="#f7d6b7">
    <rect x="11" y="21" width="3" height="1" />
    <rect x="18" y="21" width="3" height="1" />
  </g>
  <!-- facial details -->
  <rect x="13" y="11" width="2" height="2" fill="#1c1d26" />
  <rect x="18" y="11" width="2" height="2" fill="#1c1d26" />
  <rect x="14" y="11" width="1" height="1" fill="#9de6c0" />
  <rect x="19" y="11" width="1" height="1" fill="#9de6c0" />
  <rect x="13" y="13" width="7" height="1" fill="#3a1f0f" />
  <rect x="14" y="14" width="5" height="1" fill="#3a1f0f" />
  <rect x="15" y="14" width="3" height="2" fill="#572751">
    <animate attributeName="height" values="2;3;2" dur="1.2s" repeatCount="indefinite" />
    <animate attributeName="y" values="14;14;14" dur="1.2s" repeatCount="indefinite" />
  </rect>
  <!-- whiskers -->
  <rect x="11" y="13" width="2" height="1" fill="#e4c6aa" />
  <rect x="20" y="13" width="2" height="1" fill="#e4c6aa" />
  <rect x="10" y="14" width="3" height="1" fill="#e4c6aa" />
  <rect x="19" y="14" width="3" height="1" fill="#e4c6aa" />
  <!-- sleepy eyelids -->
  <rect x="13" y="10" width="2" height="1" fill="#d8b38e">
    <animate attributeName="y" values="10;10;10.5;10" dur="3s" repeatCount="indefinite" />
  </rect>
  <rect x="18" y="10" width="2" height="1" fill="#d8b38e">
    <animate attributeName="y" values="10;10;10.5;10" dur="3s" repeatCount="indefinite" />
  </rect>
</svg>
